<svg width="40" height="41" viewBox="0 0 40 41" fill="none" xmlns="http://www.w3.org/2000/svg">
<path d="M31.2344 15.2144C31.7175 15.2144 32.1837 15.288 32.6226 15.4242L36.6211 11.4257L34.7575 9.56212L29.1052 15.2144H31.2344Z" fill="#D3D800"/>
<path d="M39.3133 14.118L38.2783 13.083L34.6572 16.7041C35.4408 17.5423 35.9219 18.6666 35.9219 19.9019V20.8239L39.3133 17.4325C40.2286 16.5173 40.2286 15.0333 39.3133 14.118Z" fill="#D3D800"/>
<path d="M33.1002 7.90493L26.3957 1.2004C25.4804 0.285088 23.9964 0.285088 23.0812 1.2004L9.06711 15.2145H25.7907L33.1002 7.90493Z" fill="#D3D800"/>
<path d="M6.15085 24.9877H9.72132V27.6231H6.15085V24.9877Z" fill="#D3D800"/>
<path d="M31.2344 17.5582H2.34351C1.04905 17.5582 -0.000244141 18.6075 -0.000244141 19.902V38.1702C-0.000244141 39.4646 1.04905 40.5139 2.34351 40.5139H31.2344C32.5288 40.5139 33.5782 39.4646 33.5782 38.1702V19.902C33.5782 18.6075 32.5288 17.5582 31.2344 17.5582ZM3.8071 22.6439H12.0651V29.9669H3.8071V22.6439ZM8.36655 35.4281H3.73421V33.0844H8.36655V35.4281ZM15.5255 35.4281H10.8932V33.0844H15.5255V35.4281ZM22.6847 35.4281H18.0523V33.0844H22.6847V35.4281ZM29.8437 35.4281H25.2114V33.0844H29.8437V35.4281Z" fill="#D3D800"/>
</svg>
