<svg width="40" height="41" viewBox="0 0 40 41" fill="none" xmlns="http://www.w3.org/2000/svg">
<path d="M22.9884 25.0535C29.7004 25.0535 35.1609 19.5493 35.1609 12.7837C35.1609 6.01823 29.7004 0.513916 22.9884 0.513916C16.2765 0.513916 10.8158 6.01815 10.8158 12.7837C10.8158 19.5492 16.2765 25.0535 22.9884 25.0535ZM26.3766 17.7818C25.5325 17.7818 24.9075 17.0919 24.8709 16.2761C24.8345 15.4629 25.589 14.7705 26.3766 14.7705C27.2207 14.7705 27.8457 15.4604 27.8823 16.2761C27.9187 17.0893 27.1642 17.7818 26.3766 17.7818ZM26.0133 5.5229C26.6097 5.77322 26.8903 6.4596 26.6399 7.05605L21.5078 19.2847C21.3197 19.7331 20.885 20.003 20.4274 20.003C20.2763 20.003 20.1228 19.9735 19.9747 19.9114C19.3782 19.6611 19.0977 18.9747 19.348 18.3782L24.4801 6.14955C24.7305 5.55311 25.4169 5.27265 26.0133 5.5229ZM19.4455 10.9266C18.6014 10.9266 17.9763 10.2367 17.9398 9.42089C17.9034 8.6077 18.6579 7.91522 19.4455 7.91522C20.2896 7.91522 20.9147 8.60513 20.9512 9.42089C20.9875 10.234 20.233 10.9266 19.4455 10.9266Z" fill="#D3D800"/>
<path d="M4.2398 28.9887H1.56928C0.922478 28.9887 0.398102 29.5131 0.398102 30.1599V39.3412C0.398102 39.988 0.922478 40.5124 1.56928 40.5124H4.2398V28.9887Z" fill="#D3D800"/>
<path d="M38.8596 28.907C36.6645 26.7118 33.0927 26.7117 30.8976 28.907L27.3893 32.4153L25.9513 33.8533C25.3701 34.4344 24.5819 34.7609 23.7599 34.7609H16.7678C16.1363 34.7609 15.5929 34.2756 15.5632 33.6448C15.5315 32.9713 16.0681 32.4153 16.7346 32.4153H23.8418C25.2708 32.4153 26.5102 31.3979 26.7559 29.9902C26.8123 29.667 26.8418 29.3346 26.8418 28.9954C26.8418 28.35 26.3144 27.8217 25.669 27.8217H21.7746C20.5019 27.8217 19.2797 27.2444 17.9858 26.633C16.6285 25.9919 15.2252 25.3289 13.5842 25.2198C12.149 25.1241 10.7104 25.2813 9.30835 25.6862C7.80713 26.1196 6.72801 27.4534 6.59715 28.9933C6.59215 28.9929 6.58708 28.9928 6.582 28.9925V40.5084C6.58255 40.5084 6.58309 40.5084 6.58364 40.5083V40.5139H26.7596C28.1469 40.5139 29.4513 39.9736 30.4324 38.9926L38.8595 30.5655C39.3176 30.1077 39.3176 29.365 38.8596 28.907Z" fill="#D3D800"/>
</svg>
