<svg width="40" height="27" viewBox="0 0 40 27" fill="none" xmlns="http://www.w3.org/2000/svg">
<path d="M33 19.3803C31.1253 19.3803 29.6 20.9059 29.6 22.7803C29.6 24.6551 31.1253 26.1803 33 26.1803C34.8744 26.1803 36.4 24.6551 36.4 22.7803C36.4 20.9059 34.8744 19.3803 33 19.3803ZM33 23.7803C32.4485 23.7803 32 23.3319 32 22.7803C32 22.2287 32.4485 21.7803 33 21.7803C33.5516 21.7803 34 22.2287 34 22.7803C34 23.3319 33.5516 23.7803 33 23.7803Z" fill="#D3D800"/>
<path d="M32.6745 5.24709H26.8001C26.358 5.24709 26.0001 5.60552 26.0001 6.04709V21.6471C26.0001 22.0887 26.358 22.4471 26.8001 22.4471H27.6485C28.0445 22.4471 28.3953 22.1619 28.4465 21.7691C28.7605 19.3635 30.6793 17.8715 33.0005 17.8715C35.3216 17.8715 37.2405 19.3636 37.5545 21.7691C37.6056 22.1619 37.956 22.4471 38.3524 22.4471H39.2C39.6416 22.4471 40 22.0887 40 21.6471V13.8471C40 13.6591 39.934 13.4775 39.8136 13.3339L33.288 5.53388C33.1361 5.35231 32.9112 5.24709 32.6745 5.24709ZM27.6001 11.6471V7.64709C27.6001 7.20552 27.958 6.84709 28.4001 6.84709H31.9241C32.1612 6.84709 32.3865 6.95271 32.5384 7.13506L35.8716 11.1351C36.3056 11.6562 35.9352 12.4471 35.2569 12.4471H28.4001C27.958 12.4471 27.6001 12.0891 27.6001 11.6471Z" fill="#D3D800"/>
<path d="M0.800001 22.4475H2.84844C3.24445 22.4475 3.59523 22.1623 3.64641 21.7695C3.9604 19.3639 5.87923 17.8719 8.20041 17.8719C10.5216 17.8719 12.4404 19.364 12.7544 21.7695C12.8056 22.1623 13.156 22.4475 13.5524 22.4475H23.6C24.0417 22.4475 24.4 22.0891 24.4 21.6475V1.64747C24.4 1.2059 24.0416 0.847473 23.6 0.847473H0.800001C0.357974 0.847473 0 1.2059 0 1.64747V21.6475C0 22.0891 0.357974 22.4475 0.800001 22.4475Z" fill="#D3D800"/>
<path d="M8.19999 19.3803C6.32522 19.3803 4.79999 20.9059 4.79999 22.7803C4.79999 24.6551 6.32522 26.1803 8.19999 26.1803C10.0744 26.1803 11.6 24.6551 11.6 22.7803C11.6 20.9059 10.0744 19.3803 8.19999 19.3803ZM8.19999 23.7803C7.64842 23.7803 7.19999 23.3319 7.19999 22.7803C7.19999 22.2287 7.64842 21.7803 8.19999 21.7803C8.75156 21.7803 9.19999 22.2287 9.19999 22.7803C9.19999 23.3319 8.75156 23.7803 8.19999 23.7803Z" fill="#D3D800"/>
</svg>
